<svg xmlns="http://www.w3.org/2000/svg" xmlns:xlink="http://www.w3.org/1999/xlink" width="59.974" height="62.838" viewBox="0 0 59.974 62.838">
  <defs>
    <filter id="Icon_awesome-hand-point-right" x="0" y="0" width="59.974" height="62.838" filterUnits="userSpaceOnUse">
      <feOffset dy="3" input="SourceAlpha"/>
      <feGaussianBlur stdDeviation="3" result="blur"/>
      <feFlood flood-opacity="0.161"/>
      <feComposite operator="in" in2="blur"/>
      <feComposite in="SourceGraphic"/>
    </filter>
  </defs>
  <g transform="matrix(1, 0, 0, 1, 0, 0)" filter="url(#Icon_awesome-hand-point-right)">
    <path id="Icon_awesome-hand-point-right-2" data-name="Icon awesome-hand-point-right" d="M36,9.538a3.171,3.171,0,0,1-3.15,3.082H25.829a3.458,3.458,0,0,1-.443,4.988,3.221,3.221,0,0,1-1.157,4.382c.631,3.455-1.543,5.011-5.1,5.011-.193,0-.933-.014-1.125-.014C13.643,27,12.593,24.8,9.3,24.292a1.686,1.686,0,0,1-1.425-1.667V10.565h0a3.375,3.375,0,0,1,2-3.083c2.031-.914,6.709-3.448,7.561-5.437A3,3,0,0,1,20.25,0a3.377,3.377,0,0,1,3.1,4.7,9.557,9.557,0,0,1-1,1.752H32.85A3.222,3.222,0,0,1,36,9.538ZM6.75,9.562v13.5A1.687,1.687,0,0,1,5.063,24.75H1.688A1.687,1.687,0,0,1,0,23.062V9.562A1.687,1.687,0,0,1,1.687,7.875H5.063A1.687,1.687,0,0,1,6.75,9.562ZM4.781,21.375a1.406,1.406,0,1,0-1.406,1.406A1.406,1.406,0,0,0,4.781,21.375Z" transform="matrix(0.53, -0.85, 0.85, 0.53, 9, 36.53)" fill="#1b4964"/>
  </g>
</svg>
