<svg xmlns="http://www.w3.org/2000/svg" xmlns:xlink="http://www.w3.org/1999/xlink" width="59.974" height="62.838" viewBox="0 0 59.974 62.838">
  <defs>
    <filter id="Icon_awesome-hand-point-right" x="0" y="0" width="59.974" height="62.838" filterUnits="userSpaceOnUse">
      <feOffset dy="3" input="SourceAlpha"/>
      <feGaussianBlur stdDeviation="3" result="blur"/>
      <feFlood flood-opacity="0.161"/>
      <feComposite operator="in" in2="blur"/>
      <feComposite in="SourceGraphic"/>
    </filter>
  </defs>
  <g transform="matrix(1, 0, 0, 1, 0, 0)" filter="url(#Icon_awesome-hand-point-right)">
    <path id="Icon_awesome-hand-point-right-2" data-name="Icon awesome-hand-point-right" d="M36,17.462a3.171,3.171,0,0,0-3.15-3.082H25.829a3.458,3.458,0,0,0-.443-4.988A3.221,3.221,0,0,0,24.23,5.011C24.861,1.556,22.687,0,19.125,0c-.193,0-.933.014-1.125.014C13.643,0,12.593,2.2,9.3,2.708A1.686,1.686,0,0,0,7.875,4.374v12.06h0a3.375,3.375,0,0,0,2,3.083c2.031.914,6.709,3.448,7.561,5.437A3,3,0,0,0,20.25,27a3.377,3.377,0,0,0,3.1-4.7,9.557,9.557,0,0,0-1-1.752H32.85A3.222,3.222,0,0,0,36,17.462ZM6.75,17.438V3.938A1.687,1.687,0,0,0,5.062,2.25H1.687A1.687,1.687,0,0,0,0,3.938v13.5a1.687,1.687,0,0,0,1.688,1.688H5.063A1.687,1.687,0,0,0,6.75,17.438ZM4.781,5.625A1.406,1.406,0,1,1,3.375,4.219,1.406,1.406,0,0,1,4.781,5.625Z" transform="matrix(-0.53, -0.85, 0.85, -0.53, 28.08, 50.84)" fill="#1b4964"/>
  </g>
</svg>
