<svg xmlns="http://www.w3.org/2000/svg" width="28.418" height="30.07" viewBox="0 0 28.418 30.07">
  <g id="Group_34353" data-name="Group 34353" transform="translate(-182 -210)">
    <path id="Subtraction_28" data-name="Subtraction 28" d="M22.418,28.418H14.387a3.956,3.956,0,0,0,.391-1.726V19.914a4,4,0,0,0-4-4H4a4,4,0,0,0-4,4V6A6.007,6.007,0,0,1,6,0H22.418a6.007,6.007,0,0,1,6,6V22.418A6.007,6.007,0,0,1,22.418,28.418ZM19.924,7.459l0,0-5.347,5.347a.633.633,0,0,0,0,.894l.595.6a.631.631,0,0,0,.894,0l5.349-5.35-.106,4.379a.633.633,0,0,0,.631.646h.827a.631.631,0,0,0,.631-.631V6.106a.622.622,0,0,0-.182-.445.628.628,0,0,0-.448-.186l-7.235,0a.631.631,0,0,0-.631.631v.826a.628.628,0,0,0,.63.631h.016l4.377-.106Z" transform="translate(182 210)" fill="#fff"/>
    <rect id="Rectangle_15364" data-name="Rectangle 15364" width="11.936" height="11.936" rx="3" transform="translate(182.812 228.134)" fill="#fff"/>
  </g>
</svg>
