<svg xmlns="http://www.w3.org/2000/svg" width="27.282" height="21.863" viewBox="0 0 27.282 21.863">
  <g id="camera-208" transform="translate(-20.215 -117.058)">
    <path id="Path_64022" data-name="Path 64022" d="M381.4,369.272a5.229,5.229,0,1,0,5.228,5.229A5.234,5.234,0,0,0,381.4,369.272Z" transform="translate(-346.079 -245.03)" fill="#fff"/>
    <path id="Path_64023" data-name="Path 64023" d="M43.173,120.2h-2.4l-.855-2.074s-.464-1.067-1.4-1.067H32.234c-.89,0-1.291,1.037-1.291,1.037l-.868,2.1H27.338v-.891h-2.8a4.354,4.354,0,0,0-4.325,4.383v10.846a4.354,4.354,0,0,0,4.325,4.383H43.173a4.354,4.354,0,0,0,4.324-4.383v-9.955A4.355,4.355,0,0,0,43.173,120.2Zm-7.849,16.368a7.116,7.116,0,1,1,7.02-7.115A7.069,7.069,0,0,1,35.324,136.567Z" transform="translate(0 0)" fill="#fff"/>
  </g>
</svg>
