<svg xmlns="http://www.w3.org/2000/svg" width="25.502" height="21.863" viewBox="0 0 25.502 21.863">
  <g id="photo-gallery" transform="translate(-128.637 -183.248)">
    <path id="Path_64019" data-name="Path 64019" d="M154.139,295.876a2.732,2.732,0,0,0-2.732-2.732H131.369a2.732,2.732,0,0,0-2.732,2.732v12.76a2.732,2.732,0,0,0,2.732,2.732h20.038a2.732,2.732,0,0,0,2.732-2.732v-12.76Zm-5.423.053a1.821,1.821,0,1,1-1.822,1.821,1.822,1.822,0,0,1,1.822-1.821Zm1.821,13.722H132.323a1.792,1.792,0,0,1-1.881-1.723v-1.1l6.492-7.5.015.005.012-.007a1.545,1.545,0,0,1,2.481,0l4.462,5.174,1.6-1.881a1.3,1.3,0,0,1,2.143.03l4.414,6.218a1.776,1.776,0,0,1-1.522.774Zm0,0" transform="translate(0 -106.257)" fill="#fff"/>
    <path id="Path_64020" data-name="Path 64020" d="M186.929,239.652h21.248c.083,0,.166.007.247.015a2.576,2.576,0,0,0-2.068-1.034h-17.6a2.576,2.576,0,0,0-2.069,1.034c.081-.008.164-.015.247-.015Zm0,0" transform="translate(-56.123 -53.551)" fill="#fff"/>
    <path id="Path_64021" data-name="Path 64021" d="M228.187,184.266H246.7c.083,0,.166.007.247.015a2.575,2.575,0,0,0-2.068-1.034H230.009a2.575,2.575,0,0,0-2.068,1.034c.081-.008.164-.015.247-.015Zm0,0" transform="translate(-96.015)" fill="#fff"/>
  </g>
</svg>
