<svg xmlns="http://www.w3.org/2000/svg" width="35.532" height="29.069" viewBox="0 0 35.532 29.069">
  <g id="Group_34350" data-name="Group 34350" transform="translate(-59.25 -764)">
    <path id="eraser-24" d="M32.31,79.7a3.115,3.115,0,0,0,0-4.4L21.928,64.912a3.115,3.115,0,0,0-4.4,0L.912,81.523a3.115,3.115,0,0,0,0,4.4l6.229,6.229a3.115,3.115,0,0,0,2.2.912h23.1a.779.779,0,0,0,.779-.779V89.7a.779.779,0,0,0-.779-.779H23.092L32.31,79.7ZM12.673,75.635l8.914,8.914-4.368,4.368H9.774L4.583,83.725l8.091-8.091Z" transform="translate(61.56 700)" fill="#fff"/>
    <path id="magic-12" d="M12.5,3.423l.9-1.808,1.808-.9L13.4-.192,12.5-2l-.9,1.808-1.808.9,1.808.9ZM5.519,9.348,7.025,6.336l3.013-1.507L7.025,3.322,5.519.31,4.013,3.322,1,4.829,4.013,6.336Z" transform="translate(58.25 766)" fill="#fff"/>
  </g>
</svg>
