<svg xmlns="http://www.w3.org/2000/svg" xmlns:xlink="http://www.w3.org/1999/xlink" width="22.69" height="18.358" viewBox="0 0 22.69 18.358">
  <defs>
    <clipPath id="clip-path">
      <path id="Rectangle_14724" data-name="Rectangle 14724" d="M3,0h9.054a0,0,0,0,1,0,0V14.181a0,0,0,0,1,0,0H3a3,3,0,0,1-3-3V3A3,3,0,0,1,3,0Z" transform="translate(0 0)" fill="#fff"/>
    </clipPath>
  </defs>
  <g id="Group_36579" data-name="Group 36579" transform="translate(-280.227 -550.071)">
    <g id="Mask_Group_81" data-name="Mask Group 81" transform="translate(280.227 552.182)" clip-path="url(#clip-path)">
      <g id="Rectangle_14723" data-name="Rectangle 14723" transform="translate(0 0)" fill="none" stroke="#fff" stroke-linecap="round" stroke-width="1.5" stroke-dasharray="2 2">
        <rect width="23.399" height="14.181" rx="4" stroke="none"/>
        <rect x="0.75" y="0.75" width="21.899" height="12.681" rx="3.25" fill="none"/>
      </g>
    </g>
    <path id="Rectangle_14726" data-name="Rectangle 14726" d="M0,0H8.345a3,3,0,0,1,3,3v8.181a3,3,0,0,1-3,3H0a0,0,0,0,1,0,0V0A0,0,0,0,1,0,0Z" transform="translate(291.572 552.182)" fill="#fff"/>
    <line id="Line_673" data-name="Line 673" y1="16.358" transform="translate(290.957 551.071)" fill="none" stroke="#fff" stroke-linecap="round" stroke-width="2"/>
  </g>
</svg>
