<svg id="Icon_ionic-ios-images" data-name="Icon ionic-ios-images" xmlns="http://www.w3.org/2000/svg" width="84.99" height="84.958" viewBox="0 0 84.99 84.958">
  <path id="Path_64733" data-name="Path 64733" d="M30.466,14.288a.9.9,0,0,0-1.46-.133L11.575,37.333a.887.887,0,0,0,.607,1.46l30.556,2.655a.9.9,0,0,0,.854-1.347Z" transform="translate(13.216 17.429)" fill="#9ca6ac"/>
  <path id="Path_64734" data-name="Path 64734" d="M29.833,18.851a.9.9,0,0,0-1.46-.133l-4.7,4.761a.888.888,0,0,0-.095,1.024l4.818,9.389a.884.884,0,0,0,.7.436l8.516.74a.9.9,0,0,0,.854-1.347Z" transform="translate(33.745 25.175)" fill="#9ca6ac"/>
  <path id="Path_64735" data-name="Path 64735" d="M29.465,21.424a4.486,4.486,0,1,0-4.5-5.33A4.521,4.521,0,0,0,29.465,21.424Z" transform="translate(36.181 15.072)" fill="#9ca6ac"/>
  <path id="Path_64736" data-name="Path 64736" d="M82.519,20.707l-12.48-1.081L68.882,6.918a5.124,5.124,0,0,0-5.6-4.647L6.935,7.355a5.145,5.145,0,0,0-4.666,5.576L7.353,69.168a5.124,5.124,0,0,0,5.6,4.647l2.978-.266-.285,3.167a5.129,5.129,0,0,0,4.685,5.557l56.389,4.912a5.145,5.145,0,0,0,5.576-4.666l4.931-56.256A5.168,5.168,0,0,0,82.519,20.707ZM12.8,53.217a1.306,1.306,0,0,1-1.4-1.157L7.979,14.126a1.277,1.277,0,0,1,1.157-1.385L62.091,7.98a1.306,1.306,0,0,1,1.4,1.157l.91,10.015L26.149,15.795a5.145,5.145,0,0,0-5.576,4.666l-2.826,32.3ZM81.495,27.5,78.175,65.431a1.291,1.291,0,0,1-1.385,1.176l-3.528-.3L23.816,62a1.291,1.291,0,0,1-1.176-1.385l.721-8.327,2.6-29.607A1.291,1.291,0,0,1,27.344,21.5L64.9,24.785l5.633.493,9.787.854A1.239,1.239,0,0,1,81.495,27.5Z" transform="translate(-2.25 -2.249)" fill="#9ca6ac"/>
</svg>
