<svg xmlns="http://www.w3.org/2000/svg" width="33.399" height="33" viewBox="0 0 33.399 33">
  <g id="Group_34352" data-name="Group 34352" transform="translate(-222.514 -1783.744)">
    <path id="Subtraction_26" data-name="Subtraction 26" d="M20.209,31H0V0H31V18.677a8.372,8.372,0,0,0-4.183-1.113A8.35,8.35,0,0,0,20.208,31Zm3.607-.932h0L22.649,28.9l3-3-3-3,1.167-1.167,3,3,3-3L30.985,22.9l-3,3,3,3-1.167,1.167-3-3-3,3Z" transform="translate(223.514 1784.744)" fill="none" stroke="#fff" stroke-width="2"/>
    <rect id="Rectangle_15357" data-name="Rectangle 15357" width="7" height="8" transform="translate(231.514 1785.744)" fill="#fff"/>
    <rect id="Rectangle_15359" data-name="Rectangle 15359" width="7" height="6" transform="translate(224.514 1793.744)" fill="#fff"/>
    <rect id="Rectangle_15358" data-name="Rectangle 15358" width="7" height="8" transform="translate(246.514 1785.744)" fill="#fff"/>
    <rect id="Rectangle_15360" data-name="Rectangle 15360" width="8" height="6" transform="translate(238.514 1793.744)" fill="#fff"/>
    <rect id="Rectangle_15361" data-name="Rectangle 15361" width="7" height="8" transform="translate(231.514 1799.744)" fill="#fff"/>
    <rect id="Rectangle_15362" data-name="Rectangle 15362" width="7" height="7" transform="translate(224.514 1807.744)" fill="#fff"/>
  </g>
</svg>
