<svg xmlns="http://www.w3.org/2000/svg" width="22" height="22" viewBox="0 0 22 22">
  <g id="Group_9606" data-name="Group 9606" transform="translate(-23 -409)">
    <rect id="Rectangle_2172" data-name="Rectangle 2172" width="22" height="22" rx="4" transform="translate(23 409)" fill="#48a3ff"/>
    <path id="Icon_awesome-info-circle" data-name="Icon awesome-info-circle" d="M7.958.563a7.4,7.4,0,1,0,7.4,7.4A7.4,7.4,0,0,0,7.958.563Zm0,3.28A1.252,1.252,0,1,1,6.705,5.1,1.252,1.252,0,0,1,7.958,3.843Zm1.67,7.574a.358.358,0,0,1-.358.358H6.646a.358.358,0,0,1-.358-.358V10.7a.358.358,0,0,1,.358-.358H7V8.435H6.646a.358.358,0,0,1-.358-.358V7.361A.358.358,0,0,1,6.646,7H8.554a.358.358,0,0,1,.358.358v2.982H9.27a.358.358,0,0,1,.358.358Z" transform="translate(26.438 412.438)" fill="#fff"/>
  </g>
</svg>
