<svg xmlns="http://www.w3.org/2000/svg" width="20.501" height="21.053" viewBox="0 0 20.501 21.053">
  <g id="demand-subscription-3" transform="translate(-108.975 -69.875)">
    <path id="Path_63881" data-name="Path 63881" d="M109.636,70.827a2.831,2.831,0,0,1,2.084-.951h13.39a2.906,2.906,0,0,1,1.017.162,2.76,2.76,0,0,1,1.507,1.267,2.636,2.636,0,0,1,.327,1.281V81.8c-.447-.227-.875-.487-1.339-.68a5.772,5.772,0,0,0-4.461.042,5.606,5.606,0,0,0-1.969,1.427,5.309,5.309,0,0,0-1.091,1.923,5.224,5.224,0,0,0,.243,3.768,5.46,5.46,0,0,0,.736,1.165c.257.306.517.61.774.919h-9.037a2.953,2.953,0,0,1-.877-.118,2.785,2.785,0,0,1-1.5-1.079,2.6,2.6,0,0,1-.466-1.406V72.606a2.623,2.623,0,0,1,.661-1.78m4.238,2.661a.539.539,0,0,0,.087,1.067h9.011a.56.56,0,0,0,.392-.183.533.533,0,0,0,.065-.622.568.568,0,0,0-.493-.276h-8.912a.79.79,0,0,0-.149.014m-.022,3.747a.55.55,0,0,0-.3.193.535.535,0,0,0,0,.666.58.58,0,0,0,.461.206h8.912a.581.581,0,0,0,.406-.162.534.534,0,0,0,.091-.643.551.551,0,0,0-.459-.276h-9.011a.344.344,0,0,0-.111.016m.055,3.724a.507.507,0,0,0-.464.455.711.711,0,0,0,.036.318.525.525,0,0,0,.483.311h3.444a.514.514,0,0,0,.5-.39.577.577,0,0,0-.351-.647,1,1,0,0,0-.423-.044q-1.612-.007-3.221,0m-.055,3.756a.56.56,0,0,0-.349.274.531.531,0,0,0,.01.515.558.558,0,0,0,.469.274h2.264a.557.557,0,0,0,.4-.169.529.529,0,0,0,.082-.638.559.559,0,0,0-.481-.274h-2.12A.974.974,0,0,0,113.852,84.715Z" transform="translate(0 0)" fill="#f8445a"/>
    <path id="Path_63882" data-name="Path 63882" d="M548.568,559.115a5.145,5.145,0,0,1,3.194,1,4.884,4.884,0,0,1,1.456,1.722,4.723,4.723,0,0,1,.5,2.466,4.672,4.672,0,0,1-.663,2.09,4.948,4.948,0,0,1-1.572,1.612,5.105,5.105,0,0,1-1.99.747,5.194,5.194,0,0,1-2.786-.339,5.019,5.019,0,0,1-1.755-1.225,4.793,4.793,0,0,1-1.168-2.232,4.716,4.716,0,0,1,.108-2.4,4.832,4.832,0,0,1,.957-1.71,5.048,5.048,0,0,1,1.757-1.3,5.338,5.338,0,0,1,1.966-.434m2.115,3.086q-1.128,1.2-2.255,2.4c-.589-.51-1.173-1.026-1.762-1.538a.572.572,0,0,0-.86.167.528.528,0,0,0,.123.643l2.055,1.8a1.053,1.053,0,0,0,.238.179.579.579,0,0,0,.517-.019.969.969,0,0,0,.248-.223l2.437-2.6a.8.8,0,0,0,.166-.211.527.527,0,0,0-.11-.617A.574.574,0,0,0,550.683,562.2Z" transform="translate(-424.251 -477.887)" fill="#fff"/>
  </g>
</svg>
