<svg xmlns="http://www.w3.org/2000/svg" width="22" height="22" viewBox="0 0 22 22">
  <g id="Group_34359" data-name="Group 34359" transform="translate(-23.5 -299)">
    <rect id="Rectangle_2287" data-name="Rectangle 2287" width="22" height="22" rx="4" transform="translate(23.5 299)" fill="#f76892"/>
    <g id="policy-11" transform="translate(-141.092 218.133)">
      <path id="Path_63813" data-name="Path 63813" d="M179.746,86.63V97.008h-7.783V86.63h7.783m.649-1.3h-9.08a.649.649,0,0,0-.649.649V97.656a.649.649,0,0,0,.649.649h9.08a.649.649,0,0,0,.649-.649V85.982a.649.649,0,0,0-.649-.649Z" fill="#fff"/>
      <path id="Path_63814" data-name="Path 63814" d="M369.544,279.24l.535,1.083a.182.182,0,0,0,.139.1l1.193.175a.185.185,0,0,1,.1.324l-.863.843a.185.185,0,0,0-.055.165l.2,1.187a.185.185,0,0,1-.269.2l-1.067-.561a.185.185,0,0,0-.175,0l-1.067.561a.185.185,0,0,1-.269-.2l.2-1.187a.185.185,0,0,0-.055-.165l-.863-.843a.185.185,0,0,1,.1-.324l1.193-.175a.182.182,0,0,0,.139-.1l.535-1.083a.185.185,0,0,1,.331,0Z" transform="translate(-193.524 -190.858)" fill="#fff"/>
      <path id="Path_63815" data-name="Path 63815" d="M341.333,661.333m.649,0h3.891a.573.573,0,0,1,.649.649h0a.573.573,0,0,1-.649.649h-3.891a.573.573,0,0,1-.649-.649h0A.573.573,0,0,1,341.982,661.333Z" transform="translate(-168.072 -567.244)" fill="#fff"/>
    </g>
  </g>
</svg>
