<svg xmlns="http://www.w3.org/2000/svg" width="22" height="22" viewBox="0 0 22 22">
  <g id="Group_34360" data-name="Group 34360" transform="translate(-23.5 -347)">
    <rect id="Rectangle_2170" data-name="Rectangle 2170" width="22" height="22" rx="4" transform="translate(23.5 347)" fill="#ffb81b"/>
    <path id="policy" d="M76.128,9.544V3.033a1.209,1.209,0,0,0-.308-.743L73.837.308A1.212,1.212,0,0,0,73.095,0H65.737A1.737,1.737,0,0,0,64,1.734V12.126a1.732,1.732,0,0,0,1.731,1.734h6.095l-.193-.193-.013-.016a.569.569,0,0,1-.051-.657H65.731a.865.865,0,0,1-.865-.868V1.734a.871.871,0,0,1,.87-.868h7.358a.925.925,0,0,1,.13.055L75.207,2.9a.853.853,0,0,1,.055.13V9.286a.568.568,0,0,1,.3-.086.528.528,0,0,1,.4.175Zm-5.163,1.717h-4.8a.433.433,0,0,0,0,.866h4.8a.538.538,0,0,1-.03-.176v-.494A.566.566,0,0,1,70.965,11.262Zm.853-1.733H66.162a.433.433,0,0,0,0,.866H71.55a.564.564,0,0,1-.082-.316.529.529,0,0,1,.174-.375Zm-6.085-1.3a.434.434,0,0,1,.436-.433H71.36a.433.433,0,1,1,0,.866H66.169A.434.434,0,0,1,65.733,8.23Zm0-5.627a.869.869,0,0,1,.869-.87h4.326a.87.87,0,0,1,.869.87V6.06a.869.869,0,0,1-.869.87H66.6a.87.87,0,0,1-.869-.87Zm.866,0V6.06a0,0,0,0,0,0,0h4.326s0,0,0,0V2.6a0,0,0,0,0,0,0H66.6S66.6,2.6,66.6,2.6Zm6.5-.552c0-.238.136-.3.307-.125l.8.8c.169.169.11.307-.125.307H73.8a.705.705,0,0,1-.707-.707Zm2.891,9.291-.4-.071a1.412,1.412,0,0,0-.177-.435l.235-.33a.16.16,0,0,0-.012-.2l-.141-.141-.141-.141a.146.146,0,0,0-.2-.012l-.33.235a1.891,1.891,0,0,0-.447-.188l-.071-.4a.153.153,0,0,0-.153-.129h-.4a.163.163,0,0,0-.153.129l-.071.412a1.778,1.778,0,0,0-.435.177l-.33-.235a.16.16,0,0,0-.2.012l-.141.141-.141.141a.146.146,0,0,0-.012.2l.235.341a1.413,1.413,0,0,0-.177.435l-.4.071a.153.153,0,0,0-.129.153v.4a.163.163,0,0,0,.129.153l.412.071a1.778,1.778,0,0,0,.177.435l-.235.33a.16.16,0,0,0,.012.2l.141.141.141.141a.146.146,0,0,0,.2.012l.341-.235a1.347,1.347,0,0,0,.424.177l.071.4a.153.153,0,0,0,.153.13h.4a.163.163,0,0,0,.153-.13l.071-.4a1.413,1.413,0,0,0,.436-.177l.33.235a.16.16,0,0,0,.2-.012l.141-.141.141-.141a.146.146,0,0,0,.012-.2l-.235-.33a1.8,1.8,0,0,0,.188-.435l.4-.071a.153.153,0,0,0,.129-.153v-.4A.19.19,0,0,0,75.987,11.342Zm-1.83,1.2a.866.866,0,1,1,.65-1.038A.867.867,0,0,1,74.156,12.539Z" transform="translate(-35.564 351.57)" fill="#fff"/>
  </g>
</svg>
