<svg xmlns="http://www.w3.org/2000/svg" width="22.93" height="24.311" viewBox="0 0 22.93 24.311">
  <path id="download-135" d="M82.089,84.257H65.711a3.275,3.275,0,0,1-3.276-3.276V76.887a.819.819,0,0,1,.819-.819h1.638a.819.819,0,0,1,.819.819v2.457a1.638,1.638,0,0,0,1.638,1.638h13.1a1.638,1.638,0,0,0,1.638-1.638V76.887a.819.819,0,0,1,.819-.819h1.638a.819.819,0,0,1,.819.819v4.095a3.275,3.275,0,0,1-3.276,3.276ZM67.243,68.191a.849.849,0,0,1,1.2,0l3.82,3.82V60.765a.819.819,0,0,1,.819-.819h1.638a.819.819,0,0,1,.819.819V72.01l3.82-3.82a.849.849,0,0,1,1.2,0l1.2,1.2a.849.849,0,0,1,0,1.2l-6.764,6.764a2.2,2.2,0,0,1-1.085.351,2.267,2.267,0,0,1-1.1-.351l-6.764-6.764a.849.849,0,0,1,0-1.2l1.2-1.2Z" transform="translate(-62.435 -59.946)" fill="#fff"/>
</svg>
