<svg xmlns="http://www.w3.org/2000/svg" width="36" height="36.107" viewBox="0 0 36 36.107">
  <g id="Component_45_1" data-name="Component 45 – 1" transform="translate(1)">
    <text id="Discover" transform="translate(17 33.107)" fill="#272b31" font-size="8" font-family="Poppins-Medium, Poppins" font-weight="500"><tspan x="-17.32" y="0">Deselect</tspan></text>
    <g id="Group_36580" data-name="Group 36580" transform="translate(-52.603 -627.893)">
      <path id="eraser-11" d="M109.84,127.556l5.265,5.254a2.144,2.144,0,0,1,0,3.021L105.33,145.6a4.263,4.263,0,0,1-6.02,0l-3.755-3.755a2.144,2.144,0,0,1,0-3.021l11.274-11.274a2.131,2.131,0,0,1,3.01,0M97.055,140.34l3.765,3.755a2.112,2.112,0,0,0,3.01,0l3.755-3.755-5.265-5.265Z" transform="translate(-36.33 500.959)"/>
      <circle id="Ellipse_3522" data-name="Ellipse 3522" cx="2" cy="2" r="2" transform="translate(71 645)"/>
      <circle id="Ellipse_3523" data-name="Ellipse 3523" cx="2" cy="2" r="2" transform="translate(76 644)"/>
    </g>
  </g>
</svg>
