<svg xmlns="http://www.w3.org/2000/svg" width="26" height="35.107" viewBox="0 0 26 35.107">
  <g id="Component_44_1" data-name="Component 44 – 1" transform="translate(1)">
    <text id="Discover" transform="translate(12 32.107)" fill="#272b31" font-size="8" font-family="Poppins-Medium, Poppins" font-weight="500"><tspan x="-12.296" y="0">Select</tspan></text>
    <path id="brush-113" d="M65.376,108.54v-4.426l.279,4.124,4.714-.66,11.109-1.6c.258.276-14.875,3.195-14.489,3.21l10.77-3.21-6.879,8.46-1.183-8.46L80.51,108.54v1.475c.387-.015-12.619-1.2-12.361-1.475s11.356.415,11.371,0Zm-.065-5.9a11.66,11.66,0,0,1,.344-2.95A10.922,10.922,0,0,1,67.44,96H76.4l-.323,1.614L78.447,96h4.536a10.855,10.855,0,0,0-1.1,3.688,17,17,0,0,0-.129,2.95h1.505v5.9a3.02,3.02,0,0,1-.806,2.086,2.632,2.632,0,0,1-1.945.865H77.759v3.688a.747.747,0,0,1-.193.53.646.646,0,0,1-.495.207H70.191a.646.646,0,0,1-.495-.207.747.747,0,0,1-.193-.53V111.49H66.752a2.627,2.627,0,0,1-1.945-.865A3.026,3.026,0,0,1,64,108.54v-5.9Zm1.376,0H80.381a17.834,17.834,0,0,1,.151-3.158,14.081,14.081,0,0,1,.387-2.006H78.855l-4.751,3.25.6-3.25H68.15a8.846,8.846,0,0,0-1.161,2.6A9.779,9.779,0,0,0,66.687,102.639Z" transform="translate(-62 -96)" fill="#272b31"/>
  </g>
</svg>
