<svg id="Component_8_1" data-name="Component 8 – 1" xmlns="http://www.w3.org/2000/svg" width="109.735" height="89.776" viewBox="0 0 109.735 89.776">
  <path id="eraser-24" d="M99.784,112.483a9.619,9.619,0,0,0,0-13.6L67.721,66.817a9.619,9.619,0,0,0-13.6,0l-51.3,51.3a9.619,9.619,0,0,0,0,13.6l19.238,19.238a9.62,9.62,0,0,0,6.8,2.817H100.2a2.4,2.4,0,0,0,2.4-2.4v-8.016a2.4,2.4,0,0,0-2.4-2.4H71.317l28.467-28.468ZM39.14,99.933l27.529,27.529L53.179,140.951H30.185L14.154,124.919,39.14,99.933Z" transform="translate(7.134 -64)" fill="#fff"/>
  <path id="magic-12" d="M36.511,14.748,39.3,9.165l5.583-2.791L39.3,3.583,36.511-2,33.72,3.583,28.137,6.374,33.72,9.165Zm-21.555,18.3,4.651-9.3,9.305-4.653-9.305-4.653-4.651-9.3-4.651,9.3L1,19.09l9.305,4.653Z" transform="translate(-1 2)" fill="#fff"/>
</svg>
